# Blender v2.79 (sub 0) OBJ File: ''
# www.blender.org
v 0.000000 0.000000 -1.000000
v -0.866025 0.000000 -0.500000
v -0.866025 0.000000 0.500000
v 0.000000 0.000000 1.000000
v 0.866025 0.000000 0.500000
v 0.866025 0.000000 -0.500000
v 0.000000 0.310103 -1.000000
v -0.866025 0.310103 -0.500000
v -0.866025 0.310103 0.500000
v 0.000000 0.310103 1.000000
v 0.866025 0.310103 0.500000
v 0.866025 0.310103 -0.500000
v -0.781710 0.015096 -0.451321
v 0.000000 0.015096 -0.902641
v -0.781710 0.015096 0.451321
v 0.000000 0.015096 0.902641
v 0.781711 0.015096 0.451321
v 0.781711 0.015096 -0.451321
v -0.781710 0.295007 -0.451321
v 0.000000 0.295007 -0.902641
v -0.781710 0.295007 0.451321
v 0.000000 0.295007 0.902641
v 0.781711 0.295007 0.451321
v 0.781711 0.295007 -0.451321
vt 1.000000 0.131396
vt 0.917836 0.394189
vt 0.917836 0.131396
vt 0.570567 0.525585
vt 0.488403 0.788378
vt 0.488403 0.525585
vt 0.644731 0.788378
vt 0.726895 0.525585
vt 0.726895 0.788378
vt 1.000000 0.000000
vt 0.917836 0.000000
vt 1.000000 0.394189
vt 0.917836 0.525585
vt 0.570567 0.788378
vt 0.488403 0.919774
vt 0.414239 0.881396
vt 0.488403 1.000000
vt 0.414239 1.000000
vt 0.414239 0.525585
vt 0.488403 0.644189
vt 0.414239 0.644189
vt 0.570567 0.525585
vt 0.644731 0.644189
vt 0.570567 0.644189
vt 0.801059 0.762793
vt 0.726895 0.525585
vt 0.801059 0.525585
vt 0.488403 0.881396
vt 0.644731 0.881396
vt 0.570567 0.881396
vt 0.458918 0.394189
vt 0.688377 0.500000
vt 0.688377 0.525585
vt 0.458918 0.394189
vt 0.436578 0.144189
vt 0.458918 0.131396
vt 0.688377 0.000000
vt 0.895496 0.144189
vt 0.688377 0.025585
vt 0.000000 0.394189
vt 0.022340 0.144189
vt 0.022340 0.381396
vt 0.895496 0.381396
vt 0.917836 0.394189
vt 0.458918 0.131396
vt 0.481258 0.144189
vt 0.229459 0.000000
vt 0.000000 0.131396
vt 0.229459 0.525585
vt 0.436578 0.381396
vt 0.481258 0.381396
vt 0.229459 0.025585
vt 0.917836 0.131396
vt 0.229459 0.500000
vt 0.414238 0.881396
vt 0.000000 0.881396
vt 0.207119 0.525585
vt 0.644731 0.525585
vt 1.000000 0.525585
vt 0.570567 0.919774
vt 0.488403 0.525585
vt 0.644731 0.525585
vt 0.726895 0.762793
vt 0.414238 0.644189
vt 0.207119 1.000000
vt 0.000000 0.644189
vn 1.0000 0.0000 0.0000
vn -0.5000 0.0000 0.8660
vn -0.5000 0.0000 -0.8660
vn 0.5000 0.0000 -0.8660
vn 0.5000 0.0000 0.8660
vn -1.0000 0.0000 0.0000
vn -0.1762 -0.9843 0.0000
vn -0.0881 0.9843 0.1526
vn 0.1762 -0.9843 0.0000
vn 0.0881 0.9843 -0.1526
vn -0.0881 -0.9843 0.1526
vn 0.0881 -0.9843 -0.1526
vn -0.0881 0.9843 -0.1526
vn 0.0881 0.9843 0.1526
vn -0.0881 -0.9843 -0.1526
vn -0.1762 0.9843 0.0000
vn 0.0881 -0.9843 0.1526
vn 0.1762 0.9843 -0.0000
vn 0.0000 1.0000 0.0000
s off
f 12/1/1 5/2/1 6/3/1
f 10/4/2 3/5/2 4/6/2
f 8/7/3 1/8/3 2/9/3
f 7/10/4 6/3/4 1/11/4
f 11/12/5 4/13/5 5/2/5
f 9/14/6 2/15/6 3/5/6
f 17/16/6 24/17/6 18/18/6
f 15/19/4 22/20/4 16/21/4
f 14/22/5 19/23/5 13/24/5
f 18/25/2 20/26/2 14/27/2
f 16/21/3 23/28/3 17/16/3
f 13/24/1 21/29/1 15/30/1
f 5/31/7 18/32/7 6/33/7
f 7/34/8 24/35/8 12/36/8
f 3/37/9 13/38/9 15/39/9
f 9/40/10 22/41/10 21/42/10
f 6/33/11 14/43/11 1/44/11
f 4/45/12 15/39/12 16/46/12
f 11/47/13 22/41/13 10/48/13
f 8/49/14 20/50/14 7/34/14
f 5/31/15 16/46/15 17/51/15
f 12/36/16 23/52/16 11/47/16
f 1/44/17 13/38/17 2/53/17
f 9/40/18 19/54/18 8/49/18
f 16/55/19 18/56/19 13/57/19
f 12/1/1 11/12/1 5/2/1
f 10/4/2 9/14/2 3/5/2
f 8/7/3 7/58/3 1/8/3
f 7/10/4 12/1/4 6/3/4
f 11/12/5 10/59/5 4/13/5
f 9/14/6 8/60/6 2/15/6
f 17/16/6 23/28/6 24/17/6
f 15/19/4 21/61/4 22/20/4
f 14/22/5 20/62/5 19/23/5
f 18/25/2 24/63/2 20/26/2
f 16/21/3 22/20/3 23/28/3
f 13/24/1 19/23/1 21/29/1
f 5/31/7 17/51/7 18/32/7
f 7/34/8 20/50/8 24/35/8
f 3/37/9 2/53/9 13/38/9
f 9/40/10 10/48/10 22/41/10
f 6/33/11 18/32/11 14/43/11
f 4/45/12 3/37/12 15/39/12
f 11/47/13 23/52/13 22/41/13
f 8/49/14 19/54/14 20/50/14
f 5/31/15 4/45/15 16/46/15
f 12/36/16 24/35/16 23/52/16
f 1/44/17 14/43/17 13/38/17
f 9/40/18 21/42/18 19/54/18
f 13/57/19 15/64/19 16/55/19
f 16/55/19 17/65/19 18/56/19
f 18/56/19 14/66/19 13/57/19
