# Blender v2.79 (sub 0) OBJ File: 'grass tile project.blend'
# www.blender.org
mtllib Grass Tile 10.mtl
o Grass_Grain.004
v 0.360020 1.699332 -0.469305
v 0.414005 1.791904 -0.554635
v 0.420533 1.791904 -0.549723
v 0.219860 1.177248 -0.296628
v 0.212082 1.013349 -0.272704
v 0.226388 1.177248 -0.291716
v 0.223328 0.663501 -0.287649
v 0.186201 0.457544 -0.251898
v 0.216800 0.663501 -0.292561
v 0.318430 1.593338 -0.414034
v 0.353492 1.699332 -0.474217
v 0.205554 1.013349 -0.277616
v 0.198128 0.836241 -0.254159
v 0.146348 0.236449 -0.185347
v 0.192730 0.457544 -0.246985
v 0.497777 1.871269 -0.665965
v 0.418627 1.791118 -0.547190
v 0.504306 1.871269 -0.661052
v 0.291424 1.473709 -0.378145
v 0.311902 1.593338 -0.418946
v 0.191600 0.836241 -0.259071
v 0.181225 0.646137 -0.231697
v 0.079847 0.000000 -0.096970
v 0.139820 0.236449 -0.190260
v 0.412098 1.791118 -0.552102
v 0.353090 1.696474 -0.460095
v 0.274665 1.340228 -0.355872
v 0.284896 1.473709 -0.383057
v 0.174697 0.646137 -0.236609
v 0.158077 0.443254 -0.200933
v 0.346561 1.696474 -0.465007
v 0.304396 1.587551 -0.395384
v 0.263813 1.192681 -0.341452
v 0.268136 1.340228 -0.360785
v 0.151548 0.443254 -0.205846
v 0.125384 0.227804 -0.157486
v 0.297868 1.587551 -0.400296
v 0.269247 1.464563 -0.348672
v 0.254533 1.030854 -0.329118
v 0.257285 1.192681 -0.346364
v 0.118855 0.227804 -0.162398
v 0.079847 0.000000 -0.096970
v 0.262718 1.464563 -0.353584
v 0.244343 1.327724 -0.315577
v 0.242484 0.854532 -0.313105
v 0.248004 1.030854 -0.334030
v 0.497777 1.871269 -0.665965
v 0.504306 1.871269 -0.661052
v 0.237815 1.327724 -0.320489
v 0.235955 0.854532 -0.318018
v 0.073319 0.000000 -0.101883
v 0.073319 0.000000 -0.101883
vt 0.932739 0.213247
vt 0.956244 0.160227
vt 0.959853 0.162142
vt 0.801301 0.469702
vt 0.768184 0.523406
vt 0.797693 0.467787
vt 0.684509 0.681119
vt 0.631195 0.772890
vt 0.680900 0.679204
vt 0.904521 0.266434
vt 0.929130 0.211333
vt 0.771793 0.525320
vt 0.736738 0.582676
vt 0.580064 0.877981
vt 0.634804 0.774805
vt 0.989963 0.114106
vt 0.948860 0.182863
vt 0.986355 0.112191
vt 0.874707 0.322628
vt 0.900912 0.264519
vt 0.740347 0.584591
vt 0.702421 0.647358
vt 0.519797 0.991573
vt 0.576455 0.876066
vt 0.952468 0.184778
vt 0.915030 0.246626
vt 0.842806 0.382755
vt 0.871098 0.320713
vt 0.706030 0.649273
vt 0.664299 0.719212
vt 0.918639 0.248540
vt 0.883932 0.305239
vt 0.808328 0.447741
vt 0.839198 0.380840
vt 0.667908 0.721126
vt 0.621438 0.799997
vt 0.887541 0.307154
vt 0.854633 0.360464
vt 0.770780 0.518513
vt 0.804719 0.445827
vt 0.625047 0.801912
vt 0.572904 0.891475
vt 0.858242 0.362379
vt 0.826198 0.414060
vt 0.729670 0.595997
vt 0.767171 0.516599
vt 0.982746 0.110276
vt 0.986355 0.112191
vt 0.829806 0.415975
vt 0.726062 0.594083
vt 0.534248 0.675820
vt 0.523235 0.683230
vt 0.514873 0.601555
vt 0.140403 0.602574
vt 0.151853 0.610279
vt 0.145068 0.651807
vt 0.516188 0.989659
vt 0.576513 0.893390
vt 0.494909 0.078815
vt 0.534248 0.032972
vt 0.534248 0.032972
vt 0.495910 0.078141
vt 0.449940 0.223600
vt 0.454686 0.173509
vt 0.461590 0.215761
vt 0.461519 0.332362
vt 0.452861 0.276344
vt 0.481177 0.319134
vt 0.488314 0.456696
vt 0.473980 0.392273
vt 0.511613 0.441019
vt 0.496278 0.377269
vt 0.469032 0.125454
vt 0.472673 0.123005
vt 0.502589 0.526250
vt 0.524705 0.511369
vt 0.462058 0.168549
vt 0.468789 0.265627
vt 0.533076 0.589307
vt 0.525743 0.771895
vt 0.525743 0.771895
vt 0.159168 0.699039
vt 0.152314 0.656682
vt 0.143274 0.550733
vt 0.158929 0.561267
vt 0.151783 0.495675
vt 0.185947 0.451537
vt 0.171105 0.508676
vt 0.223266 0.789937
vt 0.223266 0.789937
vt 0.184601 0.744879
vt 0.185585 0.745541
vt 0.162746 0.701446
vt 0.212443 0.150816
vt 0.214907 0.063670
vt 0.214907 0.063670
vt 0.223266 0.158099
vt 0.222115 0.243130
vt 0.213887 0.319734
vt 0.192150 0.305107
vt 0.201020 0.388879
vt 0.178120 0.373470
vt 0.204224 0.231092
vt 0.164031 0.436790
vn 0.4070 -0.7360 -0.5409
vn -0.5950 0.1437 0.7908
vn 0.5837 -0.2399 -0.7757
vn 0.5035 -0.5465 -0.6692
vn -0.5962 0.1299 0.7923
vn 0.5677 -0.3294 -0.7544
vn -0.2948 0.8716 0.3917
vn 0.5629 -0.3515 -0.7481
vn -0.5948 0.1463 0.7905
vn 0.5446 -0.4237 -0.7238
vn -0.3942 0.7551 0.5239
vn 0.5886 -0.2044 -0.7822
vn -0.5907 0.1864 0.7850
vn -0.4825 0.5967 0.6412
vn 0.5968 -0.1214 -0.7931
vn -0.5830 0.2447 0.7748
vn -0.5430 0.4293 0.7217
vn 0.5985 -0.0950 -0.7954
vn -0.5706 0.3155 0.7582
vn -0.5755 0.2897 0.7648
vn 0.5974 -0.1129 -0.7939
vn 0.2976 -0.8689 -0.3955
vn -0.5898 0.1947 0.7838
vn 0.5931 -0.1645 -0.7882
vn -0.7990 -0.0000 -0.6013
vn 0.7990 -0.0000 0.6013
vn 0.0000 0.0000 1.0000
vn -0.7991 0.0000 -0.6013
vn -0.7991 0.0000 -0.6012
vn 0.7991 -0.0000 0.6013
vn 0.7991 0.0000 0.6012
vn 0.7991 0.0001 0.6012
usemtl None
s 1
f 1/1/1 2/2/1 3/3/1
f 4/4/2 5/5/2 6/6/2
f 7/7/3 8/8/3 9/9/3
f 10/10/4 11/11/4 1/1/4
f 12/12/5 13/13/5 5/5/2
f 14/14/6 8/8/6 15/15/6
f 16/16/7 17/17/7 18/18/7
f 19/19/8 20/20/8 10/10/8
f 21/21/9 22/22/9 13/13/9
f 23/23/10 24/24/10 14/14/10
f 25/25/11 26/26/11 17/17/11
f 27/27/12 28/28/12 19/19/12
f 29/29/13 30/30/13 22/22/13
f 31/31/14 32/32/14 26/26/14
f 33/33/15 34/34/15 27/27/15
f 35/35/16 36/36/16 30/30/16
f 37/37/17 38/38/17 32/32/17
f 39/39/18 40/40/18 33/33/18
f 41/41/19 42/42/19 36/36/19
f 43/43/20 44/44/20 38/38/20
f 45/45/21 46/46/21 39/39/21
f 3/3/22 47/47/22 48/48/22
f 49/49/23 6/6/23 44/44/23
f 7/7/24 50/50/24 45/45/24
f 24/51/25 41/52/25 35/53/25
f 38/54/26 19/55/26 32/56/26
f 1/1/1 11/11/1 2/2/1
f 4/4/2 12/12/5 5/5/2
f 7/7/3 15/15/3 8/8/3
f 10/10/4 20/20/4 11/11/4
f 12/12/5 21/21/5 13/13/5
f 14/14/6 24/24/6 8/8/6
f 16/16/7 25/25/7 17/17/7
f 19/19/8 28/28/8 20/20/8
f 21/21/9 29/29/9 22/22/9
f 23/23/10 51/57/10 24/24/10
f 25/25/11 31/31/11 26/26/11
f 27/27/12 34/34/12 28/28/12
f 29/29/13 35/35/13 30/30/13
f 31/31/14 37/37/14 32/32/14
f 33/33/15 40/40/15 34/34/15
f 35/35/16 41/41/16 36/36/16
f 37/37/17 43/43/17 38/38/17
f 39/39/18 46/46/18 40/40/18
f 41/41/19 52/58/19 42/42/19
f 43/43/20 49/49/20 44/44/20
f 45/45/21 50/50/21 46/46/21
f 3/3/22 2/2/22 47/47/22
f 49/49/23 4/4/23 6/6/23
f 7/7/24 9/9/24 50/50/24
f 25/59/27 16/60/27 47/61/27
f 25/59/28 47/61/29 2/62/29
f 43/63/25 37/64/25 28/65/25
f 4/66/25 49/67/25 40/68/25
f 21/69/25 12/70/25 50/71/25
f 12/70/25 4/66/25 46/72/25
f 31/73/28 25/59/28 11/74/28
f 25/59/28 2/62/29 11/74/28
f 29/75/25 21/69/25 9/76/25
f 31/73/28 11/74/28 20/77/25
f 37/64/25 31/73/28 20/77/25
f 37/64/25 20/77/25 28/65/25
f 43/63/25 28/65/25 34/78/25
f 49/67/25 43/63/25 34/78/25
f 40/68/25 46/72/25 4/66/25
f 49/67/25 34/78/25 40/68/25
f 35/53/25 29/75/25 8/79/25
f 46/72/25 50/71/25 12/70/25
f 9/76/25 8/79/25 29/75/25
f 51/80/27 52/81/27 41/52/27
f 8/79/25 24/51/25 35/53/25
f 21/69/25 50/71/25 9/76/25
f 24/51/25 51/80/25 41/52/25
f 26/82/30 32/56/26 10/83/26
f 38/54/26 44/84/26 27/85/26
f 6/86/26 39/87/26 33/88/26
f 44/84/26 33/88/26 27/85/26
f 48/89/27 18/90/27 17/91/27
f 3/92/31 48/89/32 17/91/30
f 6/86/26 33/88/26 44/84/26
f 3/92/31 17/91/30 1/93/26
f 1/93/26 17/91/30 26/82/30
f 36/94/27 42/95/27 23/96/27
f 23/96/26 14/97/26 36/94/26
f 15/98/26 7/99/26 22/100/26
f 45/101/26 13/102/26 7/99/26
f 7/99/26 13/102/26 22/100/26
f 36/94/26 14/97/26 30/103/26
f 30/103/26 14/97/26 15/98/26
f 5/104/26 13/102/26 45/101/26
f 30/103/26 15/98/26 22/100/26
f 39/87/26 5/104/26 45/101/26
f 6/86/26 5/104/26 39/87/26
f 10/83/26 1/93/26 26/82/30
f 38/54/26 27/85/26 19/55/26
f 10/83/26 32/56/26 19/55/26
o Grass_Grain.002
v 0.554007 1.661074 1.156459
v 0.549423 1.746105 1.263761
v 0.541310 1.746105 1.262793
v 0.592890 1.156478 0.899738
v 0.589001 0.994735 0.863407
v 0.584778 1.156478 0.898769
v 0.589796 0.644452 0.856743
v 0.605697 0.442727 0.792485
v 0.597909 0.644452 0.857711
v 0.563098 1.560374 1.080326
v 0.562120 1.661074 1.157428
v 0.597113 0.994735 0.864375
v 0.593268 0.819777 0.827672
v 0.608608 0.227807 0.699205
v 0.597585 0.442727 0.791516
v 0.532264 1.815159 1.407455
v 0.541692 1.745551 1.259596
v 0.524152 1.815159 1.406487
v 0.569438 1.444316 1.027232
v 0.571211 1.560374 1.081294
v 0.601380 0.819777 0.828640
v 0.598226 0.632212 0.786146
v 0.623720 0.000000 0.572649
v 0.616720 0.227807 0.700174
v 0.549804 1.745551 1.260565
v 0.555395 1.659059 1.144838
v 0.573882 1.313207 0.990018
v 0.577551 1.444316 1.028201
v 0.606339 0.632212 0.787114
v 0.604523 0.432654 0.733411
v 0.563508 1.659059 1.145806
v 0.565908 1.556295 1.056794
v 0.577285 1.167357 0.961523
v 0.581994 1.313207 0.990987
v 0.612636 0.432654 0.734380
v 0.612805 0.221713 0.664052
v 0.574021 1.556295 1.057762
v 0.573879 1.437869 0.990045
v 0.580501 1.007076 0.934586
v 0.585397 1.167357 0.962491
v 0.620918 0.221713 0.665021
v 0.623720 0.000000 0.572649
v 0.581991 1.437869 0.991014
v 0.579953 1.304393 0.939176
v 0.584387 0.832671 0.902046
v 0.588614 1.007076 0.935554
v 0.532264 1.815159 1.407455
v 0.524152 1.815159 1.406487
v 0.588065 1.304393 0.940145
v 0.592499 0.832671 0.903015
v 0.631832 0.000000 0.573618
v 0.631832 0.000000 0.573618
vt 0.932739 0.213247
vt 0.956244 0.160227
vt 0.959853 0.162142
vt 0.801301 0.469702
vt 0.768184 0.523406
vt 0.797693 0.467787
vt 0.684509 0.681119
vt 0.631195 0.772890
vt 0.680900 0.679204
vt 0.904521 0.266434
vt 0.929130 0.211333
vt 0.771793 0.525320
vt 0.736738 0.582676
vt 0.580064 0.877981
vt 0.634804 0.774805
vt 0.989963 0.114106
vt 0.948860 0.182863
vt 0.986355 0.112191
vt 0.874707 0.322628
vt 0.900912 0.264519
vt 0.740347 0.584591
vt 0.702421 0.647358
vt 0.519797 0.991573
vt 0.576455 0.876066
vt 0.952468 0.184778
vt 0.915030 0.246626
vt 0.842806 0.382755
vt 0.871098 0.320713
vt 0.706030 0.649273
vt 0.664299 0.719212
vt 0.918639 0.248540
vt 0.883932 0.305239
vt 0.808328 0.447741
vt 0.839198 0.380840
vt 0.667908 0.721126
vt 0.621438 0.799997
vt 0.887541 0.307154
vt 0.854633 0.360464
vt 0.770780 0.518513
vt 0.804719 0.445827
vt 0.625047 0.801912
vt 0.572904 0.891475
vt 0.858242 0.362379
vt 0.826198 0.414060
vt 0.729670 0.595997
vt 0.767171 0.516599
vt 0.982746 0.110276
vt 0.986355 0.112191
vt 0.829806 0.415975
vt 0.726062 0.594083
vt 0.534248 0.675820
vt 0.523235 0.683230
vt 0.514873 0.601555
vt 0.140403 0.602574
vt 0.151853 0.610279
vt 0.145068 0.651807
vt 0.516188 0.989659
vt 0.576513 0.893390
vt 0.494909 0.078815
vt 0.534248 0.032972
vt 0.534248 0.032972
vt 0.495910 0.078141
vt 0.449940 0.223600
vt 0.454686 0.173509
vt 0.461590 0.215761
vt 0.461519 0.332362
vt 0.452861 0.276344
vt 0.481177 0.319134
vt 0.488314 0.456696
vt 0.473980 0.392273
vt 0.511613 0.441019
vt 0.496278 0.377269
vt 0.469032 0.125454
vt 0.472673 0.123005
vt 0.502589 0.526250
vt 0.524705 0.511369
vt 0.462058 0.168549
vt 0.468789 0.265627
vt 0.533076 0.589307
vt 0.525743 0.771895
vt 0.525743 0.771895
vt 0.159168 0.699039
vt 0.152314 0.656682
vt 0.143274 0.550733
vt 0.158929 0.561267
vt 0.151783 0.495675
vt 0.185947 0.451537
vt 0.171105 0.508676
vt 0.223266 0.789937
vt 0.223266 0.789937
vt 0.184601 0.744879
vt 0.185585 0.745541
vt 0.162746 0.701446
vt 0.212443 0.150816
vt 0.214907 0.063670
vt 0.214907 0.063670
vt 0.223266 0.158099
vt 0.222115 0.243130
vt 0.213887 0.319734
vt 0.192150 0.305107
vt 0.201020 0.388879
vt 0.178120 0.373470
vt 0.204224 0.231092
vt 0.164031 0.436790
vn -0.0737 -0.7831 0.6174
vn -0.0737 -0.7831 0.6175
vn 0.1158 0.2150 -0.9697
vn -0.1127 -0.3096 0.9441
vn -0.0943 -0.6058 0.7900
vn 0.1161 0.2015 -0.9726
vn -0.1088 -0.3970 0.9113
vn 0.0505 0.9048 -0.4228
vn -0.1077 -0.4184 0.9018
vn 0.1157 0.2176 -0.9691
vn -0.1035 -0.4883 0.8665
vn 0.0710 0.8006 -0.5949
vn -0.1140 -0.2748 0.9547
vn -0.1140 -0.2749 0.9547
vn 0.1146 0.2572 -0.9595
vn 0.0898 0.6533 -0.7518
vn -0.1163 -0.1931 0.9743
vn 0.1126 0.3144 -0.9426
vn 0.1031 0.4937 -0.8635
vn -0.1169 -0.1669 0.9790
vn 0.1095 0.3834 -0.9170
vn 0.1107 0.3583 -0.9270
vn -0.1165 -0.1847 0.9759
vn -0.0511 -0.9025 0.4276
vn 0.1143 0.2653 -0.9574
vn -0.1152 -0.2356 0.9650
vn 0.9929 -0.0000 0.1186
vn -0.9929 -0.0000 -0.1186
vn 0.1125 0.3144 -0.9426
vn 0.1095 0.3835 -0.9170
vn 0.0000 0.0000 1.0000
usemtl None
s 1
f 53/105/33 54/106/34 55/107/34
f 56/108/35 57/109/35 58/110/35
f 59/111/36 60/112/36 61/113/36
f 62/114/37 63/115/37 53/105/37
f 64/116/38 65/117/38 57/109/35
f 66/118/39 60/112/39 67/119/39
f 68/120/40 69/121/40 70/122/40
f 71/123/41 72/124/41 62/114/41
f 73/125/42 74/126/42 65/117/42
f 75/127/43 76/128/43 66/118/43
f 77/129/44 78/130/44 69/121/44
f 79/131/45 80/132/46 71/123/46
f 81/133/47 82/134/47 74/126/47
f 83/135/48 84/136/48 78/130/48
f 85/137/49 86/138/49 79/131/49
f 87/139/50 88/140/50 82/134/50
f 89/141/51 90/142/51 84/136/51
f 91/143/52 92/144/52 85/137/52
f 93/145/53 94/146/53 88/140/53
f 95/147/54 96/148/54 90/142/54
f 97/149/55 98/150/55 91/143/55
f 55/107/56 99/151/56 100/152/56
f 101/153/57 58/110/57 96/148/57
f 59/111/58 102/154/58 97/149/58
f 76/155/59 93/156/59 87/157/59
f 90/158/60 71/159/60 84/160/60
f 53/105/33 63/115/33 54/106/34
f 56/108/35 64/116/38 57/109/35
f 59/111/36 67/119/36 60/112/36
f 62/114/37 72/124/37 63/115/37
f 64/116/38 73/125/38 65/117/38
f 66/118/39 76/128/39 60/112/39
f 68/120/40 77/129/40 69/121/40
f 71/123/41 80/132/41 72/124/41
f 73/125/42 81/133/42 74/126/42
f 75/127/43 103/161/43 76/128/43
f 77/129/44 83/135/44 78/130/44
f 79/131/45 86/138/45 80/132/46
f 81/133/47 87/139/47 82/134/47
f 83/135/48 89/141/48 84/136/48
f 85/137/49 92/144/49 86/138/49
f 87/139/50 93/145/61 88/140/50
f 89/141/51 95/147/51 90/142/51
f 91/143/52 98/150/52 92/144/52
f 93/145/62 104/162/62 94/146/62
f 95/147/54 101/153/54 96/148/54
f 97/149/55 102/154/55 98/150/55
f 55/107/56 54/106/56 99/151/56
f 101/153/57 56/108/57 58/110/57
f 59/111/58 61/113/58 102/154/58
f 77/163/63 68/164/63 99/165/63
f 77/163/59 99/165/59 54/166/59
f 95/167/59 89/168/59 80/169/59
f 56/170/59 101/171/59 92/172/59
f 73/173/59 64/174/59 102/175/59
f 64/174/59 56/170/59 98/176/59
f 83/177/59 77/163/59 63/178/59
f 77/163/59 54/166/59 63/178/59
f 81/179/59 73/173/59 61/180/59
f 83/177/59 63/178/59 72/181/59
f 89/168/59 83/177/59 72/181/59
f 89/168/59 72/181/59 80/169/59
f 95/167/59 80/169/59 86/182/59
f 101/171/59 95/167/59 86/182/59
f 92/172/59 98/176/59 56/170/59
f 101/171/59 86/182/59 92/172/59
f 87/157/59 81/179/59 60/183/59
f 98/176/59 102/175/59 64/174/59
f 61/180/59 60/183/59 81/179/59
f 103/184/63 104/185/63 93/156/63
f 60/183/59 76/155/59 87/157/59
f 73/173/59 102/175/59 61/180/59
f 76/155/59 103/184/59 93/156/59
f 78/186/60 84/160/60 62/187/60
f 90/158/60 96/188/60 79/189/60
f 58/190/60 91/191/60 85/192/60
f 96/188/60 85/192/60 79/189/60
f 100/193/63 70/194/63 69/195/63
f 55/196/60 100/193/60 69/195/60
f 58/190/60 85/192/60 96/188/60
f 55/196/60 69/195/60 53/197/60
f 53/197/60 69/195/60 78/186/60
f 88/198/63 94/199/63 75/200/63
f 75/200/60 66/201/60 88/198/60
f 67/202/60 59/203/60 74/204/60
f 97/205/60 65/206/60 59/203/60
f 59/203/60 65/206/60 74/204/60
f 88/198/60 66/201/60 82/207/60
f 82/207/60 66/201/60 67/202/60
f 57/208/60 65/206/60 97/205/60
f 82/207/60 67/202/60 74/204/60
f 91/191/60 57/208/60 97/205/60
f 58/190/60 57/208/60 91/191/60
f 62/187/60 53/197/60 78/186/60
f 90/158/60 79/189/60 71/159/60
f 62/187/60 84/160/60 71/159/60
o Grass_Grain.001
v 0.961134 1.711852 0.096907
v 1.044850 1.807238 0.045349
v 1.048541 1.807238 0.052638
v 0.772447 1.183681 0.183313
v 0.759064 1.019173 0.199250
v 0.776138 1.183681 0.190602
v 0.784586 0.669995 0.186324
v 0.740719 0.462679 0.199383
v 0.780894 0.669995 0.179035
v 0.902130 1.603941 0.126791
v 0.957442 1.711852 0.089618
v 0.755372 1.019173 0.191961
v 0.742844 0.841479 0.207465
v 0.681210 0.239488 0.238681
v 0.744410 0.462679 0.206671
v 1.167089 1.890519 -0.016562
v 1.045734 1.806363 0.054059
v 1.170780 1.890519 -0.009273
v 0.865101 1.483087 0.145545
v 0.898438 1.603941 0.119502
v 0.739153 0.841479 0.200176
v 0.722581 0.650655 0.217727
v 0.588557 0.000000 0.285607
v 0.677518 0.239488 0.231392
v 1.042042 1.806363 0.046771
v 0.950927 1.708668 0.102076
v 0.843618 1.348870 0.156425
v 0.861410 1.483087 0.138256
v 0.718889 0.650655 0.210439
v 0.693377 0.446762 0.232518
v 0.947236 1.708668 0.094788
v 0.881462 1.597495 0.137259
v 0.831254 1.200871 0.162687
v 0.839927 1.348870 0.149137
v 0.689685 0.446762 0.225230
v 0.650335 0.229858 0.254318
v 0.877770 1.597495 0.129970
v 0.832440 1.472900 0.162087
v 0.821580 1.038672 0.167587
v 0.827563 1.200871 0.155399
v 0.646644 0.229858 0.247029
v 0.588557 0.000000 0.285607
v 0.828749 1.472900 0.154798
v 0.798964 1.334942 0.179041
v 0.808167 0.861853 0.174381
v 0.817888 1.038672 0.160299
v 1.167089 1.890519 -0.016562
v 1.170780 1.890519 -0.009273
v 0.795273 1.334942 0.171753
v 0.804475 0.861853 0.167092
v 0.584865 0.000000 0.278318
v 0.584865 0.000000 0.278318
vt 0.932739 0.213247
vt 0.956244 0.160227
vt 0.959853 0.162142
vt 0.801301 0.469702
vt 0.768184 0.523406
vt 0.797693 0.467787
vt 0.684509 0.681119
vt 0.631195 0.772890
vt 0.680900 0.679204
vt 0.904521 0.266434
vt 0.929130 0.211333
vt 0.771793 0.525320
vt 0.736738 0.582676
vt 0.580064 0.877981
vt 0.634804 0.774805
vt 0.989963 0.114106
vt 0.948860 0.182863
vt 0.986355 0.112191
vt 0.874707 0.322628
vt 0.900912 0.264519
vt 0.740347 0.584591
vt 0.702421 0.647358
vt 0.519797 0.991573
vt 0.576455 0.876066
vt 0.952468 0.184778
vt 0.915030 0.246626
vt 0.842806 0.382755
vt 0.871098 0.320713
vt 0.706030 0.649273
vt 0.664299 0.719212
vt 0.918639 0.248540
vt 0.883932 0.305239
vt 0.808328 0.447741
vt 0.839198 0.380840
vt 0.667908 0.721126
vt 0.621438 0.799997
vt 0.887541 0.307154
vt 0.854633 0.360464
vt 0.770780 0.518513
vt 0.804719 0.445827
vt 0.625047 0.801912
vt 0.572904 0.891475
vt 0.858242 0.362379
vt 0.826198 0.414060
vt 0.729670 0.595997
vt 0.767171 0.516599
vt 0.982746 0.110276
vt 0.986355 0.112191
vt 0.829806 0.415975
vt 0.726062 0.594083
vt 0.534248 0.675820
vt 0.523235 0.683230
vt 0.514873 0.601555
vt 0.140403 0.602574
vt 0.151853 0.610279
vt 0.145068 0.651807
vt 0.516188 0.989659
vt 0.576513 0.893390
vt 0.494909 0.078815
vt 0.534248 0.032972
vt 0.534248 0.032972
vt 0.495910 0.078141
vt 0.449940 0.223600
vt 0.454686 0.173509
vt 0.461590 0.215761
vt 0.461519 0.332362
vt 0.452861 0.276344
vt 0.481177 0.319134
vt 0.488314 0.456696
vt 0.473980 0.392273
vt 0.511613 0.441019
vt 0.496278 0.377269
vt 0.469032 0.125454
vt 0.472673 0.123005
vt 0.502589 0.526250
vt 0.524705 0.511369
vt 0.462058 0.168549
vt 0.468789 0.265627
vt 0.533076 0.589307
vt 0.525743 0.771895
vt 0.525743 0.771895
vt 0.159168 0.699039
vt 0.152314 0.656682
vt 0.143274 0.550733
vt 0.158929 0.561267
vt 0.151783 0.495675
vt 0.185947 0.451537
vt 0.171105 0.508676
vt 0.223266 0.789937
vt 0.223266 0.789937
vt 0.184601 0.744879
vt 0.185585 0.745541
vt 0.162746 0.701446
vt 0.212443 0.150816
vt 0.214907 0.063670
vt 0.214907 0.063670
vt 0.223266 0.158099
vt 0.222115 0.243130
vt 0.213887 0.319734
vt 0.192150 0.305107
vt 0.201020 0.388879
vt 0.178120 0.373470
vt 0.204224 0.231092
vt 0.164031 0.436790
vn 0.6223 -0.7165 -0.3152
vn -0.8861 0.1156 0.4488
vn 0.8718 -0.2123 -0.4415
vn 0.7606 -0.5226 -0.3852
vn -0.8875 0.1018 0.4495
vn 0.8503 -0.3025 -0.4307
vn -0.4592 0.8573 0.2326
vn 0.8437 -0.3248 -0.4273
vn -0.8859 0.1182 0.4487
vn 0.8185 -0.3979 -0.4145
vn -0.6037 0.7362 0.3058
vn 0.8781 -0.1766 -0.4447
vn -0.8808 0.1585 0.4461
vn -0.7307 0.5737 0.3701
vn 0.8882 -0.0932 -0.4499
vn -0.8708 0.2171 0.4410
vn -0.8162 0.4035 0.4134
vn 0.8901 -0.0667 -0.4508
vn -0.8542 0.2885 0.4326
vn -0.8608 0.2625 0.4360
vn 0.8889 -0.0847 -0.4502
vn 0.4633 -0.8545 -0.2347
vn -0.8796 0.1668 0.4455
vn 0.8838 -0.1365 -0.4476
vn -0.4518 0.0000 -0.8921
vn 0.4518 -0.0000 0.8921
vn 0.0000 0.0000 1.0000
vn -0.4518 -0.0001 -0.8921
usemtl None
s 1
f 105/209/64 106/210/64 107/211/64
f 108/212/65 109/213/65 110/214/65
f 111/215/66 112/216/66 113/217/66
f 114/218/67 115/219/67 105/209/67
f 116/220/68 117/221/68 109/213/65
f 118/222/69 112/216/69 119/223/69
f 120/224/70 121/225/70 122/226/70
f 123/227/71 124/228/71 114/218/71
f 125/229/72 126/230/72 117/221/72
f 127/231/73 128/232/73 118/222/73
f 129/233/74 130/234/74 121/225/74
f 131/235/75 132/236/75 123/227/75
f 133/237/76 134/238/76 126/230/76
f 135/239/77 136/240/77 130/234/77
f 137/241/78 138/242/78 131/235/78
f 139/243/79 140/244/79 134/238/79
f 141/245/80 142/246/80 136/240/80
f 143/247/81 144/248/81 137/241/81
f 145/249/82 146/250/82 140/244/82
f 147/251/83 148/252/83 142/246/83
f 149/253/84 150/254/84 143/247/84
f 107/211/85 151/255/85 152/256/85
f 153/257/86 110/214/86 148/252/86
f 111/215/87 154/258/87 149/253/87
f 128/259/88 145/260/88 139/261/88
f 142/262/89 123/263/89 136/264/89
f 105/209/64 115/219/64 106/210/64
f 108/212/65 116/220/68 109/213/65
f 111/215/66 119/223/66 112/216/66
f 114/218/67 124/228/67 115/219/67
f 116/220/68 125/229/68 117/221/68
f 118/222/69 128/232/69 112/216/69
f 120/224/70 129/233/70 121/225/70
f 123/227/71 132/236/71 124/228/71
f 125/229/72 133/237/72 126/230/72
f 127/231/73 155/265/73 128/232/73
f 129/233/74 135/239/74 130/234/74
f 131/235/75 138/242/75 132/236/75
f 133/237/76 139/243/76 134/238/76
f 135/239/77 141/245/77 136/240/77
f 137/241/78 144/248/78 138/242/78
f 139/243/79 145/249/79 140/244/79
f 141/245/80 147/251/80 142/246/80
f 143/247/81 150/254/81 144/248/81
f 145/249/82 156/266/82 146/250/82
f 147/251/83 153/257/83 148/252/83
f 149/253/84 154/258/84 150/254/84
f 107/211/85 106/210/85 151/255/85
f 153/257/86 108/212/86 110/214/86
f 111/215/87 113/217/87 154/258/87
f 129/267/90 120/268/90 151/269/90
f 129/267/88 151/269/91 106/270/91
f 147/271/88 141/272/88 132/273/88
f 108/274/88 153/275/88 144/276/88
f 125/277/88 116/278/88 154/279/88
f 116/278/88 108/274/88 150/280/88
f 135/281/88 129/267/88 115/282/88
f 129/267/88 106/270/91 115/282/88
f 133/283/88 125/277/88 113/284/88
f 135/281/88 115/282/88 124/285/88
f 141/272/88 135/281/88 124/285/88
f 141/272/88 124/285/88 132/273/88
f 147/271/88 132/273/88 138/286/88
f 153/275/88 147/271/88 138/286/88
f 144/276/88 150/280/88 108/274/88
f 153/275/88 138/286/88 144/276/88
f 139/261/88 133/283/88 112/287/88
f 150/280/88 154/279/88 116/278/88
f 113/284/88 112/287/88 133/283/88
f 155/288/90 156/289/90 145/260/90
f 112/287/88 128/259/88 139/261/88
f 125/277/88 154/279/88 113/284/88
f 128/259/88 155/288/88 145/260/88
f 130/290/89 136/264/89 114/291/89
f 142/262/89 148/292/89 131/293/89
f 110/294/89 143/295/89 137/296/89
f 148/292/89 137/296/89 131/293/89
f 152/297/90 122/298/90 121/299/90
f 107/300/89 152/297/89 121/299/89
f 110/294/89 137/296/89 148/292/89
f 107/300/89 121/299/89 105/301/89
f 105/301/89 121/299/89 130/290/89
f 140/302/90 146/303/90 127/304/90
f 127/304/89 118/305/89 140/302/89
f 119/306/89 111/307/89 126/308/89
f 149/309/89 117/310/89 111/307/89
f 111/307/89 117/310/89 126/308/89
f 140/302/89 118/305/89 134/311/89
f 134/311/89 118/305/89 119/306/89
f 109/312/89 117/310/89 149/309/89
f 134/311/89 119/306/89 126/308/89
f 143/295/89 109/312/89 149/309/89
f 110/294/89 109/312/89 143/295/89
f 114/291/89 105/301/89 130/290/89
f 142/262/89 131/293/89 123/263/89
f 114/291/89 136/264/89 123/263/89
